<svg width="371" height="371" viewBox="0 0 371 371" fill="none" xmlns="http://www.w3.org/2000/svg">
<path d="M4 26C4 13.8497 13.8497 4 26 4H343C355.15 4 365 13.8497 365 26V342.5C365 354.65 355.15 364.5 343 364.5H26C13.8497 364.5 4 354.65 4 342.5V26Z" fill="#67A3FD"/>
<g clip-path="url(#clip0)">
<rect x="4" y="4" width="360" height="360" fill="#67A3FD"/>
<ellipse cx="98" cy="148" rx="22" ry="19" fill="#FFD0B2"/>
<ellipse cx="267" cy="148" rx="22" ry="19" fill="#FFD0B2"/>
<path fill-rule="evenodd" clip-rule="evenodd" d="M182 47C151 47 99.5 58.2 99.5 129C99.6088 129 99.7165 129 99.823 129C97.9778 140.056 97.4095 151.025 98.6942 160.5C101.894 184.1 132.361 202 147.194 208C152.028 210 165.894 214 182.694 214C199.494 214 213.361 210 218.194 208C233.028 202 263.494 184.1 266.694 160.5C267.99 150.946 267.392 139.882 265.5 128.742C265.375 58.1727 213.962 47 183 47H182Z" fill="#FFD0B2"/>
<g filter="url(#filter0_d)">
<path fill-rule="evenodd" clip-rule="evenodd" d="M159.353 211.521C148.473 213.609 130.11 222.194 112.5 246C97.5708 266.182 87.8327 278.609 80.5453 287.112C79.8737 287.038 79.1913 287 78.5 287C68.2827 287 60 295.283 60 305.5C60 315.717 68.2827 324 78.5 324C88.7173 324 97 315.717 97 305.5C97 302.965 96.49 300.549 95.567 298.348C109.418 284.375 129.52 264.542 141.853 257.5C137.649 271.573 127.181 329.514 141.853 364.5H177.5L183.75 341.5L190.5 364.5H225.647C240.319 329.514 229.851 271.573 225.647 257.5C237.409 264.216 257.274 283.603 271.588 297.989C270.567 300.285 270 302.826 270 305.5C270 315.717 278.283 324 288.5 324C298.717 324 307 315.717 307 305.5C307 295.283 298.717 287 288.5 287C288.035 287 287.574 287.017 287.118 287.051C279.383 278.008 269.073 265.025 255 246C236.741 221.317 217.672 212.997 206.975 211.316C200.493 212.76 192.048 214 182.694 214C173.786 214 165.702 212.875 159.353 211.521Z" fill="#FFD0B2"/>
</g>
<g style="mix-blend-mode:hard-light" opacity="0.1" filter="url(#filter1_f)">
<path fill-rule="evenodd" clip-rule="evenodd" d="M214.094 213.12C213.12 218.652 210.646 227.035 209.476 231C209.054 232.429 208.749 234.949 208.395 237.872C207.51 245.173 206.321 254.985 202.25 256.584C196.549 258.822 190.083 260 183.5 260C176.917 260 170.451 258.822 164.75 256.584C159.049 254.346 157.5 241.5 157.5 232C157.5 226.367 155.733 221.428 154.295 217.408C153.756 215.901 153.263 214.523 152.927 213.285C155.272 212.462 157.43 211.89 159.353 211.521C165.702 212.875 173.786 214 182.694 214C192.048 214 200.493 212.76 206.975 211.316C209.054 211.642 211.45 212.22 214.094 213.12Z" fill="#700000"/>
</g>
<g filter="url(#filter2_d)">
<mask id="mask0" style="mask-type:alpha" maskUnits="userSpaceOnUse" x="80" y="210" width="207" height="103">
<path fill-rule="evenodd" clip-rule="evenodd" d="M155.823 210.703C155.402 211.258 155 211.993 155 212.5C145 209.5 117.6 232.7 110 245.5C106.03 252.187 101.012 256.603 96.6242 260.464C90.5136 265.841 85.6268 270.142 86.5 278C84.1666 279.833 79.6999 284 80.4999 286C83.8333 289.833 91.4999 297.7 95.4999 298.5C99.4999 298.5 102.833 293.833 104 291.5C108.5 293 123.2 281.2 126 276C128.8 270.8 134.833 264.167 137.5 261.5C132.667 272.167 125.1 294.5 133.5 298.5C132.833 301.833 132.2 309.7 133 310.5C147 312.5 175.6 312.5 182 312.5C188.4 312.5 225.5 312 234.5 310.5C235.3 309.7 234.167 301.833 233.5 298.5C241.9 294.5 234.333 272.167 229.5 261.5C232.167 264.167 238.2 270.8 241 276C243.8 281.2 258.5 293 263 291.5C264.167 293.833 267.5 298.5 271.5 298.5C275.5 297.7 283.167 289.833 286.5 286C287.3 284 282.833 279.833 280.5 278C281.373 270.142 276.486 265.841 270.376 260.464C265.988 256.603 260.97 252.187 257 245.5C249.4 232.7 222 209.5 212 212.5C212 211.961 210.865 211.165 209.972 210.601C203.21 212.325 193.566 214 182.694 214C172.038 214 162.562 212.391 155.823 210.703Z" fill="black"/>
</mask>
<g mask="url(#mask0)">
<rect x="76" y="201" width="213" height="163" fill="#FFF6E4"/>
<g filter="url(#filter3_df)">
<circle cx="202" cy="216" r="8" stroke="#FF7A9A" stroke-width="6"/>
<circle cx="175" cy="301" r="8" stroke="#FF7A9A" stroke-width="6"/>
<path d="M156.939 242.375L146.773 236.736C145.144 235.832 143.273 237.45 143.932 239.193L150.243 255.864C150.904 257.61 153.386 257.579 154.002 255.816L157.857 244.783C158.178 243.864 157.79 242.847 156.939 242.375Z" fill="#CCB4FF"/>
<path d="M254.939 236.375L244.773 230.736C243.144 229.832 241.273 231.45 241.932 233.193L248.243 249.864C248.904 251.61 251.386 251.579 252.002 249.816L255.857 238.783C256.178 237.864 255.79 236.847 254.939 236.375Z" fill="#CCB4FF"/>
<path d="M213.902 210.022L203.145 214.43C201.421 215.137 201.514 217.609 203.286 218.184L220.243 223.682C222.019 224.258 223.546 222.302 222.555 220.719L216.355 210.812C215.839 209.986 214.803 209.653 213.902 210.022Z" fill="#A5A8BC"/>
<path d="M230.807 246.11L220.05 250.518C218.326 251.225 218.42 253.697 220.192 254.271L237.148 259.77C238.924 260.346 240.451 258.389 239.461 256.806L233.261 246.9C232.744 246.074 231.708 245.741 230.807 246.11Z" fill="#A5A8BC"/>
<path d="M267.28 265.513L276.808 272.172C278.335 273.239 280.364 271.823 279.888 270.022L275.334 252.788C274.857 250.982 272.385 250.758 271.59 252.447L266.616 263.023C266.201 263.904 266.481 264.955 267.28 265.513Z" fill="#A5A8BC"/>
<path d="M173.939 261.375L163.773 255.736C162.144 254.832 160.273 256.45 160.932 258.193L167.243 274.864C167.904 276.61 170.386 276.579 171.002 274.816L174.857 263.783C175.178 262.864 174.79 261.847 173.939 261.375Z" fill="#A5A8BC"/>
<path d="M112.077 268.968L116.522 279.709C117.234 281.43 119.706 281.329 120.274 279.555L125.715 262.579C126.285 260.801 124.323 259.281 122.743 260.277L112.858 266.511C112.034 267.03 111.704 268.068 112.077 268.968Z" fill="#A5A8BC"/>
<path d="M193.466 298.326L198.566 308.773C199.383 310.447 201.844 310.193 202.302 308.387L206.684 291.109C207.143 289.299 205.091 287.903 203.576 288.994L194.095 295.826C193.305 296.396 193.039 297.451 193.466 298.326Z" fill="#A5A8BC"/>
<path fill-rule="evenodd" clip-rule="evenodd" d="M174.271 225.073C175.485 223.928 177.409 223.997 178.569 225.227C179.915 226.654 180.793 228.734 180.959 230.83C181.13 232.999 180.55 235.511 178.529 237.417C177.167 238.702 175.612 239.319 173.951 239.257C172.536 239.205 171.313 238.649 170.639 238.342C170.626 238.336 170.612 238.33 170.599 238.324C170.536 238.295 170.476 238.268 170.42 238.242C170.133 238.111 169.936 238.021 169.743 237.945C169.762 238.331 169.874 238.846 170.096 239.765C170.104 239.797 170.111 239.829 170.119 239.862C170.319 240.688 170.619 241.928 170.605 243.17C170.588 244.617 170.15 246.252 168.738 247.584C166.253 249.927 163.456 250.378 160.951 249.619C158.729 248.945 157.047 247.419 156.1 246.414C154.94 245.185 154.984 243.26 156.198 242.115C157.412 240.97 159.336 241.039 160.496 242.269C161.181 242.996 161.959 243.59 162.645 243.798C162.936 243.886 163.17 243.893 163.392 243.841C163.612 243.789 163.995 243.638 164.518 243.15C164.521 243.123 164.525 243.081 164.526 243.021C164.53 242.629 164.425 242.105 164.187 241.121C164.176 241.073 164.164 241.025 164.152 240.974C163.956 240.167 163.663 238.962 163.661 237.771C163.659 236.349 164.061 234.7 165.479 233.364C166.845 232.076 168.432 231.601 170.04 231.792C171.203 231.931 172.295 232.438 172.886 232.712C172.948 232.741 173.005 232.767 173.055 232.79C173.719 233.092 173.959 233.16 174.061 233.174C174.072 233.168 174.086 233.159 174.104 233.147C174.153 233.115 174.228 233.059 174.329 232.964C174.75 232.567 174.958 231.999 174.898 231.231C174.832 230.391 174.459 229.676 174.173 229.372C173.013 228.142 173.057 226.217 174.271 225.073ZM164.511 243.19C164.511 243.19 164.511 243.189 164.511 243.188L164.511 243.19Z" fill="#3CD2DC"/>
<path fill-rule="evenodd" clip-rule="evenodd" d="M151.202 230.859C152.858 230.653 154.031 229.126 153.822 227.449C153.58 225.501 152.538 223.5 151.027 222.036C149.465 220.522 147.161 219.368 144.403 219.711C142.545 219.942 141.079 220.746 140.067 222.066C139.206 223.189 138.855 224.486 138.662 225.201C138.658 225.215 138.655 225.229 138.651 225.243C138.633 225.311 138.616 225.374 138.6 225.433C138.518 225.738 138.461 225.947 138.397 226.144C138.111 225.884 137.786 225.469 137.22 224.713C137.2 224.687 137.18 224.66 137.159 224.632C136.65 223.952 135.886 222.93 134.92 222.15C133.794 221.241 132.255 220.536 130.328 220.776C126.939 221.197 124.809 223.065 123.798 225.479C122.901 227.621 123.005 229.89 123.175 231.26C123.384 232.938 124.895 234.13 126.551 233.925C128.207 233.719 129.38 232.192 129.171 230.515C129.048 229.523 129.086 228.545 129.363 227.884C129.48 227.604 129.624 227.419 129.806 227.281C129.986 227.144 130.347 226.946 131.055 226.853C131.079 226.868 131.113 226.892 131.16 226.93C131.465 227.176 131.801 227.591 132.409 228.402C132.438 228.441 132.468 228.481 132.499 228.522C132.996 229.188 133.739 230.182 134.655 230.942C135.749 231.85 137.276 232.591 139.21 232.35C141.072 232.118 142.45 231.198 143.328 229.836C143.962 228.853 144.267 227.687 144.432 227.058C144.45 226.991 144.466 226.931 144.48 226.877C144.67 226.174 144.771 225.945 144.825 225.858C144.837 225.853 144.853 225.847 144.873 225.841C144.929 225.824 145.021 225.802 145.159 225.785C145.732 225.713 146.303 225.915 146.856 226.451C147.461 227.038 147.775 227.78 147.826 228.195C148.035 229.872 149.546 231.065 151.202 230.859ZM131.021 226.834C131.021 226.834 131.021 226.834 131.022 226.835L131.021 226.834Z" fill="#3CD2DC"/>
<path fill-rule="evenodd" clip-rule="evenodd" d="M214.485 263.221C216.011 262.547 217.802 263.253 218.486 264.799C219.279 266.594 219.413 268.847 218.87 270.879C218.308 272.981 216.924 275.155 214.383 276.279C212.67 277.035 210.999 277.099 209.453 276.487C208.137 275.966 207.169 275.034 206.636 274.52C206.626 274.509 206.615 274.499 206.605 274.489C206.554 274.441 206.508 274.395 206.463 274.353C206.236 274.134 206.081 273.983 205.924 273.847C205.813 274.217 205.747 274.74 205.65 275.68C205.646 275.712 205.643 275.746 205.639 275.78C205.552 276.625 205.422 277.894 204.994 279.06C204.496 280.419 203.537 281.815 201.762 282.599C198.638 283.98 195.851 283.472 193.743 281.921C191.872 280.545 190.795 278.545 190.237 277.282C189.554 275.736 190.237 273.936 191.763 273.261C193.29 272.587 195.081 273.294 195.764 274.84C196.168 275.754 196.703 276.573 197.28 276.997C197.525 277.178 197.743 277.262 197.97 277.287C198.195 277.312 198.606 277.297 199.262 277.012C199.274 276.987 199.292 276.949 199.313 276.893C199.447 276.525 199.523 275.996 199.627 274.988C199.632 274.94 199.637 274.89 199.642 274.838C199.727 274.011 199.853 272.778 200.248 271.654C200.72 270.314 201.649 268.893 203.431 268.106C205.148 267.347 206.803 267.428 208.256 268.145C209.305 268.663 210.166 269.506 210.632 269.961C210.681 270.009 210.725 270.053 210.765 270.091C211.29 270.597 211.494 270.742 211.585 270.789C211.598 270.787 211.614 270.783 211.635 270.778C211.692 270.764 211.782 270.736 211.909 270.68C212.438 270.446 212.823 269.98 213.022 269.236C213.24 268.422 213.128 267.624 212.959 267.242C212.275 265.696 212.959 263.896 214.485 263.221ZM199.242 277.046C199.242 277.046 199.242 277.046 199.243 277.045L199.242 277.046Z" fill="#3CD2DC"/>
<path fill-rule="evenodd" clip-rule="evenodd" d="M261.794 271.737C262.5 270.225 264.314 269.58 265.846 270.296C267.623 271.126 269.206 272.735 270.133 274.623C271.092 276.576 271.48 279.124 270.304 281.641C269.511 283.338 268.294 284.485 266.727 285.041C265.393 285.514 264.05 285.447 263.311 285.41C263.296 285.41 263.281 285.409 263.267 285.408C263.197 285.405 263.132 285.402 263.071 285.398C262.756 285.383 262.54 285.372 262.332 285.372C262.491 285.724 262.786 286.161 263.33 286.933C263.349 286.96 263.369 286.988 263.389 287.016C263.879 287.71 264.615 288.752 265.06 289.911C265.577 291.262 265.773 292.944 264.952 294.703C263.506 297.797 261.073 299.247 258.464 299.465C256.151 299.659 254.024 298.86 252.773 298.276C251.241 297.56 250.572 295.755 251.279 294.243C251.985 292.731 253.799 292.086 255.33 292.801C256.236 293.224 257.178 293.49 257.892 293.43C258.195 293.405 258.415 293.324 258.602 293.194C258.788 293.065 259.088 292.783 259.394 292.137C259.387 292.111 259.375 292.071 259.354 292.014C259.214 291.648 258.922 291.2 258.338 290.373C258.31 290.333 258.281 290.292 258.251 290.25C257.771 289.571 257.055 288.559 256.614 287.453C256.088 286.132 255.854 284.451 256.678 282.686C257.473 280.985 258.773 279.958 260.339 279.543C261.471 279.243 262.673 279.312 263.323 279.349C263.392 279.353 263.454 279.356 263.51 279.359C264.237 279.395 264.486 279.37 264.586 279.345C264.594 279.335 264.604 279.322 264.616 279.304C264.65 279.257 264.699 279.176 264.758 279.05C265.003 278.527 264.987 277.922 264.647 277.23C264.276 276.474 263.666 275.947 263.288 275.77C261.756 275.054 261.088 273.249 261.794 271.737ZM259.402 292.177C259.402 292.177 259.402 292.176 259.402 292.175L259.402 292.177Z" fill="#3CD2DC"/>
<path fill-rule="evenodd" clip-rule="evenodd" d="M104.509 246.612C102.875 246.274 101.273 247.342 100.93 248.997C100.533 250.919 100.875 253.15 101.834 255.022C102.825 256.958 104.635 258.793 107.356 259.356C109.19 259.736 110.837 259.446 112.22 258.523C113.397 257.737 114.146 256.622 114.559 256.007C114.567 255.995 114.576 255.983 114.584 255.971C114.623 255.913 114.659 255.859 114.693 255.807C114.869 255.546 114.989 255.366 115.114 255.2C115.301 255.538 115.475 256.036 115.768 256.934C115.778 256.965 115.788 256.997 115.799 257.03C116.062 257.838 116.457 259.051 117.12 260.101C117.893 261.324 119.123 262.487 121.024 262.88C124.369 263.573 126.986 262.49 128.721 260.53C130.26 258.792 130.893 256.61 131.173 255.258C131.515 253.603 130.469 251.987 128.835 251.648C127.201 251.31 125.598 252.378 125.256 254.033C125.053 255.011 124.702 255.925 124.227 256.461C124.026 256.689 123.83 256.817 123.614 256.89C123.399 256.961 122.994 257.033 122.293 256.892C122.276 256.871 122.25 256.837 122.218 256.786C122.009 256.455 121.824 255.954 121.51 254.99C121.495 254.944 121.48 254.897 121.464 254.847C121.207 254.057 120.824 252.877 120.202 251.862C119.458 250.651 118.251 249.457 116.343 249.062C114.505 248.682 112.904 249.11 111.635 250.116C110.718 250.843 110.053 251.848 109.694 252.391C109.656 252.448 109.622 252.501 109.591 252.547C109.184 253.151 109.015 253.336 108.936 253.401C108.923 253.401 108.906 253.401 108.885 253.401C108.827 253.399 108.733 253.39 108.597 253.362C108.031 253.245 107.555 252.87 107.204 252.185C106.82 251.435 106.763 250.631 106.847 250.222C107.19 248.567 106.143 246.951 104.509 246.612ZM122.32 256.922C122.32 256.922 122.319 256.921 122.319 256.921L122.32 256.922Z" fill="#3CD2DC"/>
<path fill-rule="evenodd" clip-rule="evenodd" d="M225.775 230.751C224.242 230.092 223.542 228.298 224.21 226.746C224.986 224.943 226.546 223.312 228.404 222.328C230.327 221.31 232.862 220.844 235.414 221.943C237.134 222.683 238.318 223.865 238.921 225.414C239.435 226.733 239.41 228.077 239.395 228.817C239.395 228.832 239.395 228.847 239.395 228.861C239.393 228.931 239.392 228.996 239.391 229.058C239.385 229.373 239.38 229.589 239.387 229.797C239.734 229.627 240.162 229.319 240.917 228.751C240.943 228.731 240.97 228.711 240.998 228.69C241.676 228.179 242.695 227.411 243.841 226.932C245.175 226.373 246.85 226.125 248.633 226.893C251.77 228.243 253.294 230.631 253.592 233.232C253.856 235.538 253.123 237.688 252.577 238.957C251.909 240.51 250.124 241.233 248.592 240.574C247.059 239.914 246.359 238.12 247.027 236.568C247.422 235.65 247.658 234.7 247.577 233.989C247.542 233.687 247.456 233.469 247.32 233.286C247.185 233.104 246.894 232.813 246.239 232.526C246.213 232.534 246.173 232.547 246.117 232.57C245.756 232.722 245.317 233.027 244.507 233.636C244.469 233.665 244.429 233.695 244.387 233.726C243.724 234.227 242.734 234.974 241.642 235.448C240.338 236.015 238.664 236.3 236.875 235.53C235.151 234.787 234.085 233.519 233.622 231.967C233.288 230.845 233.319 229.641 233.336 228.99C233.338 228.921 233.34 228.859 233.341 228.804C233.354 228.075 233.321 227.827 233.294 227.728C233.284 227.72 233.27 227.711 233.252 227.699C233.204 227.667 233.122 227.62 232.994 227.565C232.463 227.337 231.859 227.371 231.178 227.731C230.433 228.126 229.925 228.751 229.76 229.135C229.092 230.687 227.308 231.411 225.775 230.751ZM246.278 232.518C246.278 232.518 246.278 232.518 246.277 232.518L246.278 232.518Z" fill="#3CD2DC"/>
<path fill-rule="evenodd" clip-rule="evenodd" d="M132.894 302.92C131.296 302.44 130.394 300.739 130.88 299.12C131.444 297.24 132.807 295.441 134.54 294.25C136.334 293.018 138.799 292.265 141.46 293.064C143.253 293.603 144.565 294.641 145.342 296.111C146.003 297.362 146.132 298.7 146.203 299.437C146.204 299.452 146.205 299.466 146.207 299.481C146.214 299.55 146.22 299.615 146.226 299.676C146.256 299.99 146.276 300.206 146.307 300.411C146.632 300.203 147.022 299.847 147.707 299.197C147.73 299.174 147.755 299.151 147.78 299.127C148.395 298.542 149.32 297.662 150.402 297.054C151.664 296.346 153.3 295.908 155.159 296.467C158.43 297.449 160.218 299.646 160.811 302.195C161.338 304.457 160.857 306.676 160.46 307.999C159.974 309.618 158.284 310.542 156.686 310.062C155.088 309.582 154.186 307.881 154.672 306.262C154.959 305.305 155.085 304.334 154.923 303.637C154.854 303.341 154.743 303.134 154.587 302.968C154.432 302.803 154.11 302.547 153.426 302.337C153.401 302.348 153.363 302.365 153.31 302.395C152.969 302.587 152.568 302.94 151.833 303.638C151.798 303.671 151.762 303.706 151.724 303.742C151.122 304.315 150.225 305.17 149.194 305.767C147.964 306.479 146.334 306.954 144.468 306.394C142.67 305.854 141.466 304.717 140.828 303.228C140.368 302.151 140.261 300.952 140.203 300.303C140.197 300.235 140.192 300.173 140.186 300.117C140.116 299.392 140.055 299.149 140.017 299.054C140.006 299.048 139.991 299.04 139.972 299.03C139.92 299.004 139.833 298.967 139.7 298.927C139.146 298.761 138.55 298.864 137.915 299.3C137.22 299.777 136.787 300.457 136.667 300.857C136.181 302.476 134.492 303.399 132.894 302.92ZM153.464 302.324C153.464 302.324 153.463 302.324 153.463 302.324L153.464 302.324Z" fill="#3CD2DC"/>
<path d="M167.377 270.257L159.635 278.929C158.394 280.318 159.56 282.5 161.405 282.241L179.058 279.764C180.907 279.504 181.423 277.077 179.84 276.087L169.929 269.893C169.104 269.377 168.026 269.531 167.377 270.257Z" fill="#CCB4FF"/>
<path d="M125.377 287.257L117.635 295.929C116.394 297.318 117.56 299.5 119.405 299.241L137.058 296.764C138.907 296.504 139.423 294.077 137.84 293.087L127.929 286.893C127.104 286.377 126.026 286.531 125.377 287.257Z" fill="#CCB4FF"/>
<path d="M211.736 250.379L201.708 244.499C200.101 243.557 200.542 241.122 202.377 240.803L219.939 237.749C221.779 237.429 223.015 239.581 221.811 241.009L214.277 249.943C213.649 250.687 212.577 250.871 211.736 250.379Z" fill="#CCB4FF"/>
<path d="M215.334 302.771L204.219 299.367C202.438 298.821 202.304 296.351 204.016 295.617L220.397 288.588C222.113 287.852 223.813 289.66 222.971 291.327L217.705 301.76C217.266 302.629 216.265 303.056 215.334 302.771Z" fill="#CCB4FF"/>
<path d="M251.369 277.971L245.77 267.783C244.873 266.15 246.498 264.286 248.238 264.952L264.885 271.327C266.629 271.995 266.587 274.476 264.822 275.085L253.775 278.898C252.854 279.216 251.838 278.824 251.369 277.971Z" fill="#CCB4FF"/>
<path d="M141.224 221.476L151.764 216.573C153.453 215.787 153.246 213.322 151.449 212.83L134.255 208.125C132.454 207.632 131.02 209.657 132.083 211.192L138.736 220.801C139.29 221.601 140.341 221.886 141.224 221.476Z" fill="#CCB4FF"/>
<path d="M96.746 290.674L108.265 292.237C110.111 292.487 111.267 290.3 110.02 288.916L98.0871 275.673C96.8371 274.286 94.5366 275.217 94.6026 277.083L95.0162 288.762C95.0507 289.736 95.7811 290.543 96.746 290.674Z" fill="#CCB4FF"/>
<path d="M105.532 243.922L111.205 254.069C112.115 255.695 114.557 255.304 114.914 253.476L118.327 235.98C118.685 234.147 116.558 232.867 115.106 234.042L106.02 241.391C105.263 242.003 105.057 243.072 105.532 243.922Z" fill="#CCB4FF"/>
<path d="M133.077 216.968L137.522 227.709C138.234 229.43 140.706 229.329 141.274 227.555L146.715 210.579C147.285 208.801 145.323 207.281 143.743 208.277L133.858 214.511C133.034 215.03 132.704 216.068 133.077 216.968Z" fill="#A5A8BC"/>
<circle cx="237" cy="283" r="8" stroke="#FF7A9A" stroke-width="6"/>
<circle cx="186" cy="253" r="8" stroke="#FF7A9A" stroke-width="6"/>
<circle cx="141" cy="275" r="8" stroke="#FF7A9A" stroke-width="6"/>
<circle cx="91" cy="264" r="8" stroke="#FF7A9A" stroke-width="6"/>
</g>
<g filter="url(#filter4_i)">
<path d="M182.5 221C170.9 221 159.667 215.333 155 212.5L154.5 211L155.5 210H209.5L212.5 211L212 212.5C206.833 215.333 194.1 221 182.5 221Z" fill="#4C5670"/>
</g>
<g filter="url(#filter5_i)">
<path d="M183 302C166.6 302 142.833 299.667 133 298.5L129.5 313H237L233.5 298.5C223.667 299.667 199.4 302 183 302Z" fill="#4C5670"/>
</g>
<g filter="url(#filter6_i)">
<path d="M77 287L85.5 277C90.1667 281.167 101.8 290.8 105 292L96.5 302.5L77 287Z" fill="#4C5670"/>
</g>
<g filter="url(#filter7_i)">
<path d="M289 286L281 277.5C276.333 281.667 265.2 290.8 262 292L269 303.5L289 286Z" fill="#4C5670"/>
</g>
</g>
</g>
</g>
<path fill-rule="evenodd" clip-rule="evenodd" d="M233.643 308.199C225.508 308.868 198.472 311 183.997 311C170.72 311 145.064 309.207 134.109 308.393C133.336 327.491 134.829 348.112 141.559 364H177.567L183.88 341L190.698 364H226.201C232.954 348.058 234.434 327.351 233.643 308.199Z" fill="#212121"/>
<g opacity="0.7" filter="url(#filter8_f)">
<ellipse cx="123.5" cy="164.5" rx="12.5" ry="10.5" fill="#FFBAA5"/>
<ellipse cx="243.5" cy="164.5" rx="12.5" ry="10.5" fill="#FFBAA5"/>
</g>
<g filter="url(#filter9_d)">
<path d="M114.5 112C165.7 108 211.167 84 227.5 72.5C231.167 84.5 243.36 107.867 253.5 113.5C267 121 265.5 123.5 265.5 128C273.333 126.667 287.1 116.4 279.5 86C271.9 55.6 246.667 56.3333 235 60.5C235.5 57 230 27 184.5 27C114.5 27 84.5 76 84.5 100C84.5 119.2 94.5 126.667 99.5 128C102.7 117.2 110.833 112.833 114.5 112Z" fill="#57280D"/>
</g>
<g clip-path="url(#clip1)">
<g filter="url(#filter10_d)">
<path d="M184 138L192.66 160.5H175.34L184 138Z" fill="#FF7E36"/>
</g>
</g>
<path d="M203 173C203 179.075 194.493 184 184 184C173.507 184 165 179.075 165 173" stroke="#8C501D" stroke-width="3" stroke-linecap="round"/>
<mask id="mask1" style="mask-type:alpha" maskUnits="userSpaceOnUse" x="199" y="115" width="45" height="39">
<ellipse cx="221.216" cy="134.5" rx="21.8358" ry="19.5" fill="white"/>
</mask>
<g mask="url(#mask1)">
<path d="M242.052 134.5C242.052 144.614 232.833 153 221.216 153C209.6 153 200.381 144.614 200.381 134.5C200.381 124.386 209.6 116 221.216 116C232.833 116 242.052 124.386 242.052 134.5Z" fill="white" stroke="#8C501D" stroke-width="2"/>
<ellipse cx="219.728" cy="131" rx="17.3694" ry="18" fill="#8C501D"/>
<rect width="45.4663" height="19.0534" transform="matrix(0.926356 0.376649 -0.371828 0.928302 207.92 105.725)" fill="#FFAFA4"/>
</g>
<mask id="mask2" style="mask-type:alpha" maskUnits="userSpaceOnUse" x="123" y="115" width="45" height="39">
<ellipse cx="145.784" cy="134.5" rx="21.8358" ry="19.5" fill="white"/>
</mask>
<g mask="url(#mask2)">
<path d="M166.619 134.5C166.619 144.614 157.4 153 145.784 153C134.167 153 124.948 144.614 124.948 134.5C124.948 124.386 134.167 116 145.784 116C157.4 116 166.619 124.386 166.619 134.5Z" fill="white" stroke="#8C501D" stroke-width="2"/>
<ellipse cx="147.272" cy="131" rx="17.3694" ry="18" fill="#8C501D"/>
<rect width="45.4663" height="19.0534" transform="matrix(0.926336 -0.376699 0.371877 0.928282 117 122.851)" fill="#FFAFA4"/>
</g>
<g filter="url(#filter11_d)">
<path fill-rule="evenodd" clip-rule="evenodd" d="M365 4H4V365H365V4ZM38 19C26.9543 19 18 27.9543 18 39V329C18 340.046 26.9543 349 38 349H328C339.046 349 348 340.046 348 329V39C348 27.9543 339.046 19 328 19H38Z" fill="white"/>
</g>
<defs>
<filter id="filter0_d" x="56" y="211.316" width="255" height="161.184" filterUnits="userSpaceOnUse" color-interpolation-filters="sRGB">
<feFlood flood-opacity="0" result="BackgroundImageFix"/>
<feColorMatrix in="SourceAlpha" type="matrix" values="0 0 0 0 0 0 0 0 0 0 0 0 0 0 0 0 0 0 127 0" result="hardAlpha"/>
<feOffset dy="4"/>
<feGaussianBlur stdDeviation="2"/>
<feComposite in2="hardAlpha" operator="out"/>
<feColorMatrix type="matrix" values="0 0 0 0 0 0 0 0 0 0 0 0 0 0 0 0 0 0 0.16 0"/>
<feBlend mode="normal" in2="BackgroundImageFix" result="effect1_dropShadow"/>
<feBlend mode="normal" in="SourceGraphic" in2="effect1_dropShadow" result="shape"/>
</filter>
<filter id="filter1_f" x="150.927" y="209.316" width="65.1671" height="52.6843" filterUnits="userSpaceOnUse" color-interpolation-filters="sRGB">
<feFlood flood-opacity="0" result="BackgroundImageFix"/>
<feBlend mode="normal" in="SourceGraphic" in2="BackgroundImageFix" result="shape"/>
<feGaussianBlur stdDeviation="1" result="effect1_foregroundBlur"/>
</filter>
<filter id="filter2_d" x="72" y="201" width="221" height="171" filterUnits="userSpaceOnUse" color-interpolation-filters="sRGB">
<feFlood flood-opacity="0" result="BackgroundImageFix"/>
<feColorMatrix in="SourceAlpha" type="matrix" values="0 0 0 0 0 0 0 0 0 0 0 0 0 0 0 0 0 0 127 0" result="hardAlpha"/>
<feOffset dy="4"/>
<feGaussianBlur stdDeviation="2"/>
<feComposite in2="hardAlpha" operator="out"/>
<feColorMatrix type="matrix" values="0 0 0 0 0 0 0 0 0 0 0 0 0 0 0 0 0 0 0.1 0"/>
<feBlend mode="normal" in2="BackgroundImageFix" result="effect1_dropShadow"/>
<feBlend mode="normal" in="SourceGraphic" in2="effect1_dropShadow" result="shape"/>
</filter>
<filter id="filter3_df" x="79" y="204" width="203.958" height="111" filterUnits="userSpaceOnUse" color-interpolation-filters="sRGB">
<feFlood flood-opacity="0" result="BackgroundImageFix"/>
<feColorMatrix in="SourceAlpha" type="matrix" values="0 0 0 0 0 0 0 0 0 0 0 0 0 0 0 0 0 0 127 0" result="hardAlpha"/>
<feOffset dx="1" dy="1"/>
<feGaussianBlur stdDeviation="1"/>
<feColorMatrix type="matrix" values="0 0 0 0 0.933333 0 0 0 0 0.851667 0 0 0 0 0.688333 0 0 0 1 0"/>
<feBlend mode="normal" in2="BackgroundImageFix" result="effect1_dropShadow"/>
<feBlend mode="normal" in="SourceGraphic" in2="effect1_dropShadow" result="shape"/>
<feGaussianBlur stdDeviation="0.15" result="effect2_foregroundBlur"/>
</filter>
<filter id="filter4_i" x="154.5" y="206" width="58" height="15" filterUnits="userSpaceOnUse" color-interpolation-filters="sRGB">
<feFlood flood-opacity="0" result="BackgroundImageFix"/>
<feBlend mode="normal" in="SourceGraphic" in2="BackgroundImageFix" result="shape"/>
<feColorMatrix in="SourceAlpha" type="matrix" values="0 0 0 0 0 0 0 0 0 0 0 0 0 0 0 0 0 0 127 0" result="hardAlpha"/>
<feOffset dy="-4"/>
<feGaussianBlur stdDeviation="2"/>
<feComposite in2="hardAlpha" operator="arithmetic" k2="-1" k3="1"/>
<feColorMatrix type="matrix" values="0 0 0 0 0.14902 0 0 0 0 0.192157 0 0 0 0 0.313726 0 0 0 0.3 0"/>
<feBlend mode="normal" in2="shape" result="effect1_innerShadow"/>
</filter>
<filter id="filter5_i" x="129.5" y="298.5" width="107.5" height="18.5" filterUnits="userSpaceOnUse" color-interpolation-filters="sRGB">
<feFlood flood-opacity="0" result="BackgroundImageFix"/>
<feBlend mode="normal" in="SourceGraphic" in2="BackgroundImageFix" result="shape"/>
<feColorMatrix in="SourceAlpha" type="matrix" values="0 0 0 0 0 0 0 0 0 0 0 0 0 0 0 0 0 0 127 0" result="hardAlpha"/>
<feOffset dy="4"/>
<feGaussianBlur stdDeviation="2"/>
<feComposite in2="hardAlpha" operator="arithmetic" k2="-1" k3="1"/>
<feColorMatrix type="matrix" values="0 0 0 0 0.14902 0 0 0 0 0.192157 0 0 0 0 0.313726 0 0 0 0.3 0"/>
<feBlend mode="normal" in2="shape" result="effect1_innerShadow"/>
</filter>
<filter id="filter6_i" x="77" y="277" width="28" height="29.5" filterUnits="userSpaceOnUse" color-interpolation-filters="sRGB">
<feFlood flood-opacity="0" result="BackgroundImageFix"/>
<feBlend mode="normal" in="SourceGraphic" in2="BackgroundImageFix" result="shape"/>
<feColorMatrix in="SourceAlpha" type="matrix" values="0 0 0 0 0 0 0 0 0 0 0 0 0 0 0 0 0 0 127 0" result="hardAlpha"/>
<feOffset dy="4"/>
<feGaussianBlur stdDeviation="2"/>
<feComposite in2="hardAlpha" operator="arithmetic" k2="-1" k3="1"/>
<feColorMatrix type="matrix" values="0 0 0 0 0.147135 0 0 0 0 0.19307 0 0 0 0 0.3125 0 0 0 0.3 0"/>
<feBlend mode="normal" in2="shape" result="effect1_innerShadow"/>
</filter>
<filter id="filter7_i" x="262" y="277.5" width="27" height="30" filterUnits="userSpaceOnUse" color-interpolation-filters="sRGB">
<feFlood flood-opacity="0" result="BackgroundImageFix"/>
<feBlend mode="normal" in="SourceGraphic" in2="BackgroundImageFix" result="shape"/>
<feColorMatrix in="SourceAlpha" type="matrix" values="0 0 0 0 0 0 0 0 0 0 0 0 0 0 0 0 0 0 127 0" result="hardAlpha"/>
<feOffset dy="4"/>
<feGaussianBlur stdDeviation="2"/>
<feComposite in2="hardAlpha" operator="arithmetic" k2="-1" k3="1"/>
<feColorMatrix type="matrix" values="0 0 0 0 0.147135 0 0 0 0 0.19307 0 0 0 0 0.3125 0 0 0 0.3 0"/>
<feBlend mode="normal" in2="shape" result="effect1_innerShadow"/>
</filter>
<filter id="filter8_f" x="94" y="144" width="180" height="41" filterUnits="userSpaceOnUse" color-interpolation-filters="sRGB">
<feFlood flood-opacity="0" result="BackgroundImageFix"/>
<feBlend mode="normal" in="SourceGraphic" in2="BackgroundImageFix" result="shape"/>
<feGaussianBlur stdDeviation="2.5" result="effect1_foregroundBlur"/>
</filter>
<filter id="filter9_d" x="80.5" y="27" width="205.215" height="109" filterUnits="userSpaceOnUse" color-interpolation-filters="sRGB">
<feFlood flood-opacity="0" result="BackgroundImageFix"/>
<feColorMatrix in="SourceAlpha" type="matrix" values="0 0 0 0 0 0 0 0 0 0 0 0 0 0 0 0 0 0 127 0" result="hardAlpha"/>
<feOffset dy="4"/>
<feGaussianBlur stdDeviation="2"/>
<feComposite in2="hardAlpha" operator="out"/>
<feColorMatrix type="matrix" values="0 0 0 0 0 0 0 0 0 0 0 0 0 0 0 0 0 0 0.2 0"/>
<feBlend mode="normal" in2="BackgroundImageFix" result="effect1_dropShadow"/>
<feBlend mode="normal" in="SourceGraphic" in2="effect1_dropShadow" result="shape"/>
</filter>
<filter id="filter10_d" x="170" y="138" width="28" height="38" filterUnits="userSpaceOnUse" color-interpolation-filters="sRGB">
<feFlood flood-opacity="0" result="BackgroundImageFix"/>
<feColorMatrix in="SourceAlpha" type="matrix" values="0 0 0 0 0 0 0 0 0 0 0 0 0 0 0 0 0 0 127 0" result="hardAlpha"/>
<feOffset dy="4"/>
<feGaussianBlur stdDeviation="2"/>
<feComposite in2="hardAlpha" operator="out"/>
<feColorMatrix type="matrix" values="0 0 0 0 0 0 0 0 0 0 0 0 0 0 0 0 0 0 0.08 0"/>
<feBlend mode="normal" in2="BackgroundImageFix" result="effect1_dropShadow"/>
<feBlend mode="normal" in="SourceGraphic" in2="effect1_dropShadow" result="shape"/>
</filter>
<filter id="filter11_d" x="0" y="0" width="371" height="371" filterUnits="userSpaceOnUse" color-interpolation-filters="sRGB">
<feFlood flood-opacity="0" result="BackgroundImageFix"/>
<feColorMatrix in="SourceAlpha" type="matrix" values="0 0 0 0 0 0 0 0 0 0 0 0 0 0 0 0 0 0 127 0" result="hardAlpha"/>
<feOffset dx="1" dy="1"/>
<feGaussianBlur stdDeviation="2.5"/>
<feColorMatrix type="matrix" values="0 0 0 0 0 0 0 0 0 0 0 0 0 0 0 0 0 0 0.25 0"/>
<feBlend mode="multiply" in2="BackgroundImageFix" result="effect1_dropShadow"/>
<feBlend mode="normal" in="SourceGraphic" in2="effect1_dropShadow" result="shape"/>
</filter>
<clipPath id="clip0">
<rect width="360" height="360" fill="white" transform="translate(4 4)"/>
</clipPath>
<clipPath id="clip1">
<rect width="33" height="33" fill="white" transform="translate(167 135)"/>
</clipPath>
</defs>
</svg>
